<?xml version="1.0" encoding="UTF-8" standalone="no"?>
<!DOCTYPE svg PUBLIC "-//W3C//DTD SVG 1.1//EN"
 "http://www.w3.org/Graphics/SVG/1.1/DTD/svg11.dtd">
<!-- Generated by graphviz version 2.36.0 (20140111.2315)
 -->
<!-- Title: models_diagram Pages: 1 -->
<svg width="674pt" height="972pt"
 viewBox="0.00 0.00 674.00 972.00" xmlns="http://www.w3.org/2000/svg" xmlns:xlink="http://www.w3.org/1999/xlink">
<g id="graph0" class="graph" transform="scale(1 1) rotate(0) translate(4 968)">
<title>models_diagram</title>
<polygon fill="none" stroke="none" points="-4,4 -4,-968 670,-968 670,4 -4,4"/>
<!-- _diagram_info -->
<g id="node1" class="node"><title>_diagram_info</title>
<text text-anchor="start" x="38" y="-777.6" font-family="Times,serif" font-size="13.00">Models diagram</text>
<text text-anchor="start" x="38" y="-763.6" font-family="Times,serif" font-size="13.00">Date: May 13 2016 &#45; 20:39</text>
<text text-anchor="start" x="38" y="-749.6" font-family="Times,serif" font-size="13.00">Migration version: 20150723052743</text>
<text text-anchor="start" x="38" y="-735.6" font-family="Times,serif" font-size="13.00">Generated by RailRoady 1.4.2</text>
<text text-anchor="start" x="38" y="-721.6" font-family="Times,serif" font-size="13.00">http://railroady.prestonlee.com</text>
</g>
<!-- Post -->
<g id="node2" class="node"><title>Post</title>
<path fill="none" stroke="black" d="M250.5,-323C250.5,-323 381.5,-323 381.5,-323 387.5,-323 393.5,-329 393.5,-335 393.5,-335 393.5,-477 393.5,-477 393.5,-483 387.5,-489 381.5,-489 381.5,-489 250.5,-489 250.5,-489 244.5,-489 238.5,-483 238.5,-477 238.5,-477 238.5,-335 238.5,-335 238.5,-329 244.5,-323 250.5,-323"/>
<text text-anchor="middle" x="316" y="-473.8" font-family="Times,serif" font-size="14.00">Post</text>
<polyline fill="none" stroke="black" points="238.5,-466 393.5,-466 "/>
<text text-anchor="start" x="246.5" y="-450.8" font-family="Times,serif" font-size="14.00">id :INTEGER</text>
<text text-anchor="start" x="246.5" y="-435.8" font-family="Times,serif" font-size="14.00">content :text</text>
<text text-anchor="start" x="246.5" y="-420.8" font-family="Times,serif" font-size="14.00">user_id :integer</text>
<text text-anchor="start" x="246.5" y="-405.8" font-family="Times,serif" font-size="14.00">attachment :varchar(255)</text>
<text text-anchor="start" x="246.5" y="-390.8" font-family="Times,serif" font-size="14.00">created_at :datetime</text>
<text text-anchor="start" x="246.5" y="-375.8" font-family="Times,serif" font-size="14.00">updated_at :datetime</text>
<text text-anchor="start" x="246.5" y="-360.8" font-family="Times,serif" font-size="14.00">cached_votes_up :integer</text>
<text text-anchor="start" x="246.5" y="-345.8" font-family="Times,serif" font-size="14.00">comments_count :integer</text>
<text text-anchor="start" x="246.5" y="-330.8" font-family="Times,serif" font-size="14.00">content_html :text</text>
</g>
<!-- Comment -->
<g id="node6" class="node"><title>Comment</title>
<path fill="none" stroke="black" d="M394,-88.5C394,-88.5 568,-88.5 568,-88.5 574,-88.5 580,-94.5 580,-100.5 580,-100.5 580,-257.5 580,-257.5 580,-263.5 574,-269.5 568,-269.5 568,-269.5 394,-269.5 394,-269.5 388,-269.5 382,-263.5 382,-257.5 382,-257.5 382,-100.5 382,-100.5 382,-94.5 388,-88.5 394,-88.5"/>
<text text-anchor="middle" x="481" y="-254.3" font-family="Times,serif" font-size="14.00">Comment</text>
<polyline fill="none" stroke="black" points="382,-246.5 580,-246.5 "/>
<text text-anchor="start" x="390" y="-231.3" font-family="Times,serif" font-size="14.00">id :INTEGER</text>
<text text-anchor="start" x="390" y="-216.3" font-family="Times,serif" font-size="14.00">title :varchar(50)</text>
<text text-anchor="start" x="390" y="-201.3" font-family="Times,serif" font-size="14.00">comment :text</text>
<text text-anchor="start" x="390" y="-186.3" font-family="Times,serif" font-size="14.00">commentable_id :integer</text>
<text text-anchor="start" x="390" y="-171.3" font-family="Times,serif" font-size="14.00">commentable_type :varchar(255)</text>
<text text-anchor="start" x="390" y="-156.3" font-family="Times,serif" font-size="14.00">user_id :integer</text>
<text text-anchor="start" x="390" y="-141.3" font-family="Times,serif" font-size="14.00">role :varchar(255)</text>
<text text-anchor="start" x="390" y="-126.3" font-family="Times,serif" font-size="14.00">created_at :datetime</text>
<text text-anchor="start" x="390" y="-111.3" font-family="Times,serif" font-size="14.00">updated_at :datetime</text>
<text text-anchor="start" x="390" y="-96.3" font-family="Times,serif" font-size="14.00">comment_html :text</text>
</g>
<!-- Post&#45;&gt;Comment -->
<g id="edge2" class="edge"><title>Post&#45;&gt;Comment</title>
<path fill="none" stroke="#17de68" d="M381.066,-316.273C390.306,-303.673 399.852,-290.656 409.211,-277.894"/>
<ellipse fill="none" stroke="#17de68" cx="378.635" cy="-319.589" rx="4.00002" ry="4.00002"/>
<polygon fill="#17de68" stroke="#17de68" points="409.416,-277.615 418.958,-272.212 412.372,-273.583 415.329,-269.551 415.329,-269.551 415.329,-269.551 412.372,-273.583 411.7,-266.89 409.416,-277.615 409.416,-277.615"/>
</g>
<!-- ActsAsVotable::Vote -->
<g id="node7" class="node"><title>ActsAsVotable::Vote</title>
<ellipse fill="none" stroke="black" cx="193" cy="-179" rx="86.1637" ry="18"/>
<text text-anchor="middle" x="193" y="-175.3" font-family="Times,serif" font-size="14.00">ActsAsVotable::Vote</text>
</g>
<!-- Post&#45;&gt;ActsAsVotable::Vote -->
<g id="edge1" class="edge"><title>Post&#45;&gt;ActsAsVotable::Vote</title>
<path fill="none" stroke="#11e159" d="M256.72,-315.8C254.403,-311.841 252.153,-307.896 250,-304 231.992,-271.413 214.615,-232.11 203.879,-206.614"/>
<ellipse fill="none" stroke="#11e159" cx="258.913" cy="-319.495" rx="4.00002" ry="4.00002"/>
<polygon fill="#11e159" stroke="#11e159" points="203.819,-206.469 204.122,-195.507 201.894,-201.854 199.969,-197.239 199.969,-197.239 199.969,-197.239 201.894,-201.854 195.816,-198.971 203.819,-206.469 203.819,-206.469"/>
<text text-anchor="middle" x="276" y="-292.3" font-family="Times,serif" font-size="14.00">votes_for</text>
</g>
<!-- PublicActivity::Activity -->
<g id="node8" class="node"><title>PublicActivity::Activity</title>
<ellipse fill="none" stroke="black" cx="365" cy="-18" rx="95.3122" ry="18"/>
<text text-anchor="middle" x="365" y="-14.3" font-family="Times,serif" font-size="14.00">PublicActivity::Activity</text>
</g>
<!-- Post&#45;&gt;PublicActivity::Activity -->
<g id="edge3" class="edge"><title>Post&#45;&gt;PublicActivity::Activity</title>
<path fill="none" stroke="#a1e1de" d="M306.31,-314.687C302.257,-250.236 302.611,-162.19 324,-88 328.473,-72.4854 337.297,-56.8791 345.616,-44.4426"/>
<ellipse fill="none" stroke="#a1e1de" cx="306.586" cy="-318.833" rx="4" ry="4"/>
<polygon fill="#a1e1de" stroke="#a1e1de" points="345.79,-44.1929 355.205,-38.5701 348.653,-40.0934 351.516,-35.9939 351.516,-35.9939 351.516,-35.9939 348.653,-40.0934 347.826,-33.4176 345.79,-44.1929 345.79,-44.1929"/>
<text text-anchor="middle" x="348.5" y="-175.3" font-family="Times,serif" font-size="14.00">activities</text>
</g>
<!-- Event -->
<g id="node3" class="node"><title>Event</title>
<path fill="none" stroke="black" d="M11.5,-330.5C11.5,-330.5 142.5,-330.5 142.5,-330.5 148.5,-330.5 154.5,-336.5 154.5,-342.5 154.5,-342.5 154.5,-469.5 154.5,-469.5 154.5,-475.5 148.5,-481.5 142.5,-481.5 142.5,-481.5 11.5,-481.5 11.5,-481.5 5.5,-481.5 -0.5,-475.5 -0.5,-469.5 -0.5,-469.5 -0.5,-342.5 -0.5,-342.5 -0.5,-336.5 5.5,-330.5 11.5,-330.5"/>
<text text-anchor="middle" x="77" y="-466.3" font-family="Times,serif" font-size="14.00">Event</text>
<polyline fill="none" stroke="black" points="-0.5,-458.5 154.5,-458.5 "/>
<text text-anchor="start" x="7.5" y="-443.3" font-family="Times,serif" font-size="14.00">id :INTEGER</text>
<text text-anchor="start" x="7.5" y="-428.3" font-family="Times,serif" font-size="14.00">name :varchar(255)</text>
<text text-anchor="start" x="7.5" y="-413.3" font-family="Times,serif" font-size="14.00">when :datetime</text>
<text text-anchor="start" x="7.5" y="-398.3" font-family="Times,serif" font-size="14.00">user_id :integer</text>
<text text-anchor="start" x="7.5" y="-383.3" font-family="Times,serif" font-size="14.00">created_at :datetime</text>
<text text-anchor="start" x="7.5" y="-368.3" font-family="Times,serif" font-size="14.00">updated_at :datetime</text>
<text text-anchor="start" x="7.5" y="-353.3" font-family="Times,serif" font-size="14.00">cached_votes_up :integer</text>
<text text-anchor="start" x="7.5" y="-338.3" font-family="Times,serif" font-size="14.00">comments_count :integer</text>
</g>
<!-- Event&#45;&gt;Comment -->
<g id="edge5" class="edge"><title>Event&#45;&gt;Comment</title>
<path fill="none" stroke="#1d69ac" d="M160.889,-326.251C163.567,-324.739 166.272,-323.316 169,-322 212.826,-300.852 229.99,-316.574 277,-304 318.709,-292.844 330.426,-291.268 368,-270 369.719,-269.027 371.439,-268.029 373.158,-267.008"/>
<ellipse fill="none" stroke="#1d69ac" cx="157.299" cy="-328.402" rx="4.00002" ry="4.00002"/>
<polygon fill="#1d69ac" stroke="#1d69ac" points="373.227,-266.965 384.102,-265.556 377.485,-264.345 381.743,-261.724 381.743,-261.724 381.743,-261.724 377.485,-264.345 379.385,-257.892 373.227,-266.965 373.227,-266.965"/>
</g>
<!-- Event&#45;&gt;ActsAsVotable::Vote -->
<g id="edge4" class="edge"><title>Event&#45;&gt;ActsAsVotable::Vote</title>
<path fill="none" stroke="#fc6ce7" d="M108.495,-323.075C113.684,-311.156 119.256,-299.153 125,-288 140.091,-258.7 160.603,-226.986 175.141,-205.556"/>
<ellipse fill="none" stroke="#fc6ce7" cx="106.894" cy="-326.801" rx="4.00002" ry="4.00002"/>
<polygon fill="#fc6ce7" stroke="#fc6ce7" points="175.324,-205.29 184.686,-199.581 178.148,-201.164 180.973,-197.039 180.973,-197.039 180.973,-197.039 178.148,-201.164 177.26,-194.496 175.324,-205.29 175.324,-205.29"/>
<text text-anchor="middle" x="151" y="-292.3" font-family="Times,serif" font-size="14.00">votes_for</text>
</g>
<!-- Event&#45;&gt;PublicActivity::Activity -->
<g id="edge6" class="edge"><title>Event&#45;&gt;PublicActivity::Activity</title>
<path fill="none" stroke="#e2f633" d="M40.7962,-322.89C16.0684,-252.852 -3.6555,-153.394 49,-88 76.2574,-54.1486 186.087,-36.007 268.666,-26.9536"/>
<ellipse fill="none" stroke="#e2f633" cx="42.158" cy="-326.663" rx="4.00001" ry="4.00001"/>
<polygon fill="#e2f633" stroke="#e2f633" points="268.905,-26.9282 279.326,-30.3423 273.877,-26.3979 278.849,-25.8677 278.849,-25.8677 278.849,-25.8677 273.877,-26.3979 278.371,-21.3931 268.905,-26.9282 268.905,-26.9282"/>
<text text-anchor="middle" x="73.5" y="-175.3" font-family="Times,serif" font-size="14.00">activities</text>
</g>
<!-- User -->
<g id="node4" class="node"><title>User</title>
<path fill="none" stroke="black" d="M274,-542.5C274,-542.5 464,-542.5 464,-542.5 470,-542.5 476,-548.5 476,-554.5 476,-554.5 476,-951.5 476,-951.5 476,-957.5 470,-963.5 464,-963.5 464,-963.5 274,-963.5 274,-963.5 268,-963.5 262,-957.5 262,-951.5 262,-951.5 262,-554.5 262,-554.5 262,-548.5 268,-542.5 274,-542.5"/>
<text text-anchor="middle" x="369" y="-948.3" font-family="Times,serif" font-size="14.00">User</text>
<polyline fill="none" stroke="black" points="262,-940.5 476,-940.5 "/>
<text text-anchor="start" x="270" y="-925.3" font-family="Times,serif" font-size="14.00">id :INTEGER</text>
<text text-anchor="start" x="270" y="-910.3" font-family="Times,serif" font-size="14.00">name :varchar(255)</text>
<text text-anchor="start" x="270" y="-895.3" font-family="Times,serif" font-size="14.00">email :varchar(255)</text>
<text text-anchor="start" x="270" y="-880.3" font-family="Times,serif" font-size="14.00">encrypted_password :varchar(255)</text>
<text text-anchor="start" x="270" y="-865.3" font-family="Times,serif" font-size="14.00">about :varchar(255)</text>
<text text-anchor="start" x="270" y="-850.3" font-family="Times,serif" font-size="14.00">avatar :varchar(255)</text>
<text text-anchor="start" x="270" y="-835.3" font-family="Times,serif" font-size="14.00">cover :varchar(255)</text>
<text text-anchor="start" x="270" y="-820.3" font-family="Times,serif" font-size="14.00">reset_password_token :varchar(255)</text>
<text text-anchor="start" x="270" y="-805.3" font-family="Times,serif" font-size="14.00">reset_password_sent_at :datetime</text>
<text text-anchor="start" x="270" y="-790.3" font-family="Times,serif" font-size="14.00">remember_created_at :datetime</text>
<text text-anchor="start" x="270" y="-775.3" font-family="Times,serif" font-size="14.00">sign_in_count :integer</text>
<text text-anchor="start" x="270" y="-760.3" font-family="Times,serif" font-size="14.00">current_sign_in_at :datetime</text>
<text text-anchor="start" x="270" y="-745.3" font-family="Times,serif" font-size="14.00">last_sign_in_at :datetime</text>
<text text-anchor="start" x="270" y="-730.3" font-family="Times,serif" font-size="14.00">current_sign_in_ip :varchar(255)</text>
<text text-anchor="start" x="270" y="-715.3" font-family="Times,serif" font-size="14.00">last_sign_in_ip :varchar(255)</text>
<text text-anchor="start" x="270" y="-700.3" font-family="Times,serif" font-size="14.00">confirmation_token :varchar(255)</text>
<text text-anchor="start" x="270" y="-685.3" font-family="Times,serif" font-size="14.00">confirmed_at :datetime</text>
<text text-anchor="start" x="270" y="-670.3" font-family="Times,serif" font-size="14.00">confirmation_sent_at :datetime</text>
<text text-anchor="start" x="270" y="-655.3" font-family="Times,serif" font-size="14.00">created_at :datetime</text>
<text text-anchor="start" x="270" y="-640.3" font-family="Times,serif" font-size="14.00">updated_at :datetime</text>
<text text-anchor="start" x="270" y="-625.3" font-family="Times,serif" font-size="14.00">sex :varchar(255)</text>
<text text-anchor="start" x="270" y="-610.3" font-family="Times,serif" font-size="14.00">location :varchar(255)</text>
<text text-anchor="start" x="270" y="-595.3" font-family="Times,serif" font-size="14.00">dob :date</text>
<text text-anchor="start" x="270" y="-580.3" font-family="Times,serif" font-size="14.00">phone_number :varchar(255)</text>
<text text-anchor="start" x="270" y="-565.3" font-family="Times,serif" font-size="14.00">posts_count :integer</text>
<text text-anchor="start" x="270" y="-550.3" font-family="Times,serif" font-size="14.00">slug :varchar(255)</text>
</g>
<!-- User&#45;&gt;Post -->
<g id="edge10" class="edge"><title>User&#45;&gt;Post</title>
<path fill="none" stroke="#dc656b" d="M335.527,-534.112C333.682,-522.1 331.885,-510.403 330.176,-499.279"/>
<ellipse fill="none" stroke="#dc656b" cx="336.187" cy="-538.409" rx="4.00001" ry="4.00001"/>
<polygon fill="#dc656b" stroke="#dc656b" points="330.151,-499.116 333.081,-488.549 329.392,-494.174 328.633,-489.232 328.633,-489.232 328.633,-489.232 329.392,-494.174 324.185,-489.915 330.151,-499.116 330.151,-499.116"/>
</g>
<!-- User&#45;&gt;Event -->
<g id="edge12" class="edge"><title>User&#45;&gt;Event</title>
<path fill="none" stroke="#e265d7" d="M255.4,-544.644C254.276,-543.749 253.143,-542.867 252,-542 224.69,-521.281 206.232,-541.905 177,-524 161.811,-514.697 147.753,-502.306 135.265,-489.067"/>
<ellipse fill="none" stroke="#e265d7" cx="258.66" cy="-547.363" rx="4.00002" ry="4.00002"/>
<polygon fill="#e265d7" stroke="#e265d7" points="135.23,-489.028 131.818,-478.607 131.861,-485.333 128.492,-481.639 128.492,-481.639 128.492,-481.639 131.861,-485.333 125.167,-484.67 135.23,-489.028 135.23,-489.028"/>
</g>
<!-- Follow -->
<g id="node5" class="node"><title>Follow</title>
<path fill="none" stroke="black" d="M462,-330.5C462,-330.5 620,-330.5 620,-330.5 626,-330.5 632,-336.5 632,-342.5 632,-342.5 632,-469.5 632,-469.5 632,-475.5 626,-481.5 620,-481.5 620,-481.5 462,-481.5 462,-481.5 456,-481.5 450,-475.5 450,-469.5 450,-469.5 450,-342.5 450,-342.5 450,-336.5 456,-330.5 462,-330.5"/>
<text text-anchor="middle" x="541" y="-466.3" font-family="Times,serif" font-size="14.00">Follow</text>
<polyline fill="none" stroke="black" points="450,-458.5 632,-458.5 "/>
<text text-anchor="start" x="458" y="-443.3" font-family="Times,serif" font-size="14.00">id :INTEGER</text>
<text text-anchor="start" x="458" y="-428.3" font-family="Times,serif" font-size="14.00">followable_id :integer</text>
<text text-anchor="start" x="458" y="-413.3" font-family="Times,serif" font-size="14.00">followable_type :varchar(255)</text>
<text text-anchor="start" x="458" y="-398.3" font-family="Times,serif" font-size="14.00">follower_id :integer</text>
<text text-anchor="start" x="458" y="-383.3" font-family="Times,serif" font-size="14.00">follower_type :varchar(255)</text>
<text text-anchor="start" x="458" y="-368.3" font-family="Times,serif" font-size="14.00">blocked :boolean</text>
<text text-anchor="start" x="458" y="-353.3" font-family="Times,serif" font-size="14.00">created_at :datetime</text>
<text text-anchor="start" x="458" y="-338.3" font-family="Times,serif" font-size="14.00">updated_at :datetime</text>
</g>
<!-- User&#45;&gt;Follow -->
<g id="edge8" class="edge"><title>User&#45;&gt;Follow</title>
<path fill="none" stroke="#94f850" d="M477.256,-534.858C484.851,-519.624 492.198,-504.888 499.036,-491.173"/>
<ellipse fill="none" stroke="#94f850" cx="475.299" cy="-538.783" rx="4.00002" ry="4.00002"/>
<polygon fill="#94f850" stroke="#94f850" points="499.223,-490.796 507.712,-483.854 501.454,-486.321 503.685,-481.847 503.685,-481.847 503.685,-481.847 501.454,-486.321 499.658,-479.839 499.223,-490.796 499.223,-490.796"/>
</g>
<!-- User&#45;&gt;Follow -->
<g id="edge9" class="edge"><title>User&#45;&gt;Follow</title>
<path fill="none" stroke="#957964" d="M479.855,-567.404C487.343,-552.888 494.487,-538.31 501,-524 505.794,-513.468 510.342,-502.183 514.536,-490.93"/>
<ellipse fill="none" stroke="#957964" cx="477.998" cy="-570.975" rx="4.00002" ry="4.00002"/>
<polygon fill="#957964" stroke="#957964" points="514.548,-490.897 522.201,-483.044 516.26,-486.2 517.973,-481.502 517.973,-481.502 517.973,-481.502 516.26,-486.2 513.745,-479.961 514.548,-490.897 514.548,-490.897"/>
<text text-anchor="middle" x="536" y="-512.3" font-family="Times,serif" font-size="14.00">followings</text>
</g>
<!-- User&#45;&gt;Comment -->
<g id="edge11" class="edge"><title>User&#45;&gt;Comment</title>
<path fill="none" stroke="#212576" d="M400.792,-533.967C411.994,-465.787 425.666,-390.494 441,-322 444.091,-308.191 447.712,-293.728 451.488,-279.538"/>
<ellipse fill="none" stroke="#212576" cx="400.083" cy="-538.298" rx="4.00001" ry="4.00001"/>
<polygon fill="#212576" stroke="#212576" points="451.519,-279.423 458.468,-270.94 452.821,-274.595 454.123,-269.768 454.123,-269.768 454.123,-269.768 452.821,-274.595 449.779,-268.596 451.519,-279.423 451.519,-279.423"/>
</g>
<!-- User&#45;&gt;ActsAsVotable::Vote -->
<g id="edge7" class="edge"><title>User&#45;&gt;ActsAsVotable::Vote</title>
<path fill="none" stroke="#7f38e0" d="M256.944,-548.719C255.304,-546.455 253.656,-544.214 252,-542 232.616,-516.074 213.628,-519.807 201,-490 179.613,-439.52 187.192,-273.158 191.185,-207.244"/>
<ellipse fill="none" stroke="#7f38e0" cx="259.516" cy="-552.321" rx="4.00002" ry="4.00002"/>
<polygon fill="#7f38e0" stroke="#7f38e0" points="191.188,-207.187 196.304,-197.488 191.5,-202.197 191.813,-197.207 191.813,-197.207 191.813,-197.207 191.5,-202.197 187.321,-196.926 191.188,-207.187 191.188,-207.187"/>
<text text-anchor="middle" x="215.5" y="-402.3" font-family="Times,serif" font-size="14.00">votes</text>
</g>
<!-- Follow&#45;&gt;PublicActivity::Activity -->
<g id="edge13" class="edge"><title>Follow&#45;&gt;PublicActivity::Activity</title>
<path fill="none" stroke="#8779c4" d="M583.798,-322.883C613.254,-253.753 638.923,-155.616 589,-88 571.207,-63.9009 499.788,-44.6987 442.312,-32.732"/>
<ellipse fill="none" stroke="#8779c4" cx="582.16" cy="-326.653" rx="4.00002" ry="4.00002"/>
<polygon fill="#8779c4" stroke="#8779c4" points="442.288,-32.7272 433.389,-26.3191 437.388,-31.7277 432.489,-30.7282 432.489,-30.7282 432.489,-30.7282 437.388,-31.7277 431.59,-35.1374 442.288,-32.7272 442.288,-32.7272"/>
<text text-anchor="middle" x="641.5" y="-175.3" font-family="Times,serif" font-size="14.00">activities</text>
</g>
<!-- Comment&#45;&gt;PublicActivity::Activity -->
<g id="edge14" class="edge"><title>Comment&#45;&gt;PublicActivity::Activity</title>
<path fill="none" stroke="#3327ad" d="M410.781,-81.7513C400.755,-68.0085 391.239,-54.9651 383.506,-44.3666"/>
<ellipse fill="none" stroke="#3327ad" cx="413.184" cy="-85.0457" rx="4.00002" ry="4.00002"/>
<polygon fill="#3327ad" stroke="#3327ad" points="383.353,-44.1557 381.094,-33.4249 380.406,-40.1164 377.459,-36.0771 377.459,-36.0771 377.459,-36.0771 380.406,-40.1164 373.823,-38.7293 383.353,-44.1557 383.353,-44.1557"/>
<text text-anchor="middle" x="423.5" y="-58.3" font-family="Times,serif" font-size="14.00">activities</text>
</g>
</g>
</svg>
